<?xml version="1.0" encoding="UTF-8" standalone="no"?>
<svg
   xmlns:dc="http://purl.org/dc/elements/1.1/"
   xmlns:cc="http://creativecommons.org/ns#"
   xmlns:rdf="http://www.w3.org/1999/02/22-rdf-syntax-ns#"
   xmlns:svg="http://www.w3.org/2000/svg"
   xmlns="http://www.w3.org/2000/svg"
   version="1.1"
   id="svg10878"
   viewBox="0 0 300 74.430017"
   height="74.430016"
   width="300">
  <defs
     id="defs10880">
    <clipPath
       id="clipPath9380"
       clipPathUnits="userSpaceOnUse">
      <path
         id="path9382"
         d="m 469.599,433.685 78.439,0 0,19.292 -78.439,0 0,-19.292 z" />
    </clipPath>
    <linearGradient
       id="linearGradient9354"
       spreadMethod="pad"
       gradientTransform="matrix(0,17.51171,17.51171,0,505.22699,434.32424)"
       gradientUnits="userSpaceOnUse"
       y2="0"
       x2="1"
       y1="0"
       x1="0">
      <stop
         id="stop9356"
         offset="0"
         style="stop-opacity:1;stop-color:#feeabe" />
      <stop
         id="stop9358"
         offset="0.25"
         style="stop-opacity:1;stop-color:#fdd000" />
      <stop
         id="stop9360"
         offset="1"
         style="stop-opacity:1;stop-color:#b67100" />
    </linearGradient>
    <linearGradient
       id="linearGradient9332"
       spreadMethod="pad"
       gradientTransform="matrix(0,-19.456339,-19.456339,0,502.92184,452.5146)"
       gradientUnits="userSpaceOnUse"
       y2="0"
       x2="1"
       y1="0"
       x1="0">
      <stop
         id="stop9334"
         offset="0"
         style="stop-opacity:1;stop-color:#feeabe" />
      <stop
         id="stop9336"
         offset="0.5"
         style="stop-opacity:1;stop-color:#fdd000" />
      <stop
         id="stop9338"
         offset="1"
         style="stop-opacity:1;stop-color:#af7900" />
    </linearGradient>
  </defs>
  <metadata
     id="metadata10883">
    <rdf:RDF>
      <cc:Work
         rdf:about="">
        <dc:format>image/svg+xml</dc:format>
        <dc:type
           rdf:resource="http://purl.org/dc/dcmitype/StillImage" />
        <dc:title></dc:title>
      </cc:Work>
    </rdf:RDF>
  </metadata>
  <g
     transform="translate(-444.39476,-653.67244)"
     id="layer1">
    <g
       id="g9320"
       transform="matrix(3.8094995,0,0,-3.8094995,-1343.5424,2379.4081)">
      <g
         id="g9322">
        <g
           id="g9328">
          <g
             id="g9330">
            <path
               id="path9340"
               style="fill:url(#linearGradient9332);stroke:none"
               d="m 469.599,443.484 0,-0.851 c 0.623,-4.251 10.486,-7.794 23.782,-8.9 l 0,0 0.004,0 c -9.328,1.429 -19.217,4.559 -19.217,8.053 l 0,0 c 0,5.335 14.765,9.663 32.805,9.663 l 0,0 c 12.428,0 24.501,-2.943 29.276,-5.965 l 0,0 c -4.588,3.879 -18.69,7.262 -33.893,7.262 l 0,0 c -17.551,0 -31.999,-4.112 -32.757,-9.262" />
          </g>
        </g>
      </g>
    </g>
    <g
       id="g9342"
       transform="matrix(3.8094995,0,0,-3.8094995,-1343.5424,2379.4081)">
      <g
         id="g9344">
        <g
           id="g9350">
          <g
             id="g9352">
            <path
               id="path9362"
               style="fill:url(#linearGradient9354);stroke:none"
               d="m 474.168,441.849 0,-0.113 c 0.093,-3.475 9.937,-6.582 19.222,-8.003 l 0,0 c -6.798,1.744 -13.85,4.272 -13.85,7.557 l 0,0 c 0,4.888 13.068,8.844 29.011,8.844 l 0,0 c 10.985,0 22.423,-1.928 27.698,-4.65 l 0,0 c -4.775,3.022 -16.848,5.965 -29.276,5.965 l 0,0 c -17.969,0 -32.688,-4.293 -32.805,-9.6" />
          </g>
        </g>
      </g>
    </g>
    <g
       transform="matrix(3.8094995,0,0,-3.8094995,497.50797,685.80818)"
       id="g9364">
      <path
         id="path9366"
         style="fill:#0e357f;fill-opacity:1;fill-rule:nonzero;stroke:none"
         d="m 0,0 3.08,0 0.202,-3.778 0.01,0 0.797,3.778 1.764,0 -1.12,-5.357 -3.028,0 -0.227,3.886 -0.02,0 -0.811,-3.886 -1.765,0" />
    </g>
    <g
       transform="matrix(3.8094995,0,0,-3.8094995,542.17435,691.82566)"
       id="g9368">
      <path
         id="path9370"
         style="fill:#0e357f;fill-opacity:1;fill-rule:nonzero;stroke:none"
         d="m 0,0 -1.768,0 -0.791,-3.777 -2.056,0 0.791,3.777 -1.774,0 0.334,1.579 5.594,0" />
    </g>
    <g
       transform="matrix(3.8094995,0,0,-3.8094995,565.59857,691.82566)"
       id="g9372">
      <path
         id="path9374"
         style="fill:#0e357f;fill-opacity:1;fill-rule:nonzero;stroke:none"
         d="m 0,0 -1.773,0 -0.793,-3.777 -2.054,0 L -3.836,0 -5.6,0 l 0.331,1.579 5.601,0" />
    </g>
    <g
       id="g9376"
       transform="matrix(3.8094995,0,0,-3.8094995,-1343.5424,2379.4081)">
      <g
         clip-path="url(#clipPath9380)"
         id="g9378">
        <g
           transform="translate(508.6534,441.1598)"
           id="g9384">
          <path
             id="path9386"
             style="fill:#0e357f;fill-opacity:1;fill-rule:nonzero;stroke:none"
             d="m 0,0 c 0,-1.167 -0.78,-2.016 -1.9,-2.016 -0.915,0 -1.462,0.577 -1.462,1.519 0,1.109 0.82,1.958 1.895,1.958 C -0.599,1.461 0,0.92 0,0 m -0.866,-0.002 c 0,0.433 -0.151,0.797 -0.639,0.797 -0.657,0 -0.981,-0.758 -0.981,-1.356 0,-0.443 0.172,-0.788 0.651,-0.788 0.64,0 0.969,0.778 0.969,1.347" />
        </g>
        <g
           transform="translate(509.2953,442.1817)"
           id="g9388">
          <path
             id="path9390"
             style="fill:#0e357f;fill-opacity:1;fill-rule:nonzero;stroke:none"
             d="m 0,0 c 0.03,0.127 0.055,0.261 0.068,0.369 l 0.78,0 -0.073,-0.448 0.015,0 c 0.214,0.34 0.583,0.518 0.98,0.518 0.376,0 0.769,-0.226 0.808,-0.63 l 0.015,0 c 0.214,0.436 0.672,0.63 1.126,0.63 0.477,0 0.884,-0.401 0.884,-0.907 0,-0.296 -0.071,-0.636 -0.137,-0.902 l -0.335,-1.596 -0.832,0 0.33,1.621 c 0.047,0.208 0.109,0.514 0.109,0.72 0,0.239 -0.184,0.4 -0.388,0.4 -0.581,0 -0.725,-0.701 -0.833,-1.152 l -0.327,-1.589 -0.83,0 0.335,1.621 c 0.045,0.208 0.106,0.514 0.106,0.72 0,0.239 -0.187,0.4 -0.393,0.4 -0.565,0 -0.72,-0.705 -0.831,-1.152 l -0.323,-1.589 -0.833,0" />
        </g>
        <g
           transform="translate(514.573,442.1817)"
           id="g9392">
          <path
             id="path9394"
             style="fill:#0e357f;fill-opacity:1;fill-rule:nonzero;stroke:none"
             d="m 0,0 c 0.024,0.127 0.05,0.261 0.065,0.369 l 0.781,0 -0.077,-0.448 0.017,0 c 0.219,0.34 0.585,0.518 0.977,0.518 0.381,0 0.771,-0.226 0.815,-0.63 l 0.013,0 c 0.216,0.436 0.676,0.63 1.119,0.63 0.485,0 0.892,-0.401 0.892,-0.907 0,-0.296 -0.072,-0.636 -0.143,-0.902 l -0.334,-1.596 -0.837,0 0.338,1.621 c 0.041,0.208 0.11,0.514 0.11,0.72 0,0.239 -0.18,0.4 -0.389,0.4 -0.583,0 -0.73,-0.701 -0.828,-1.152 l -0.336,-1.589 -0.827,0 0.329,1.621 c 0.046,0.208 0.111,0.514 0.111,0.72 0,0.239 -0.185,0.4 -0.391,0.4 -0.566,0 -0.722,-0.705 -0.831,-1.152 l -0.326,-1.589 -0.828,0" />
        </g>
        <g
           transform="translate(522.2693,439.6974)"
           id="g9396">
          <path
             id="path9398"
             style="fill:#0e357f;fill-opacity:1;fill-rule:nonzero;stroke:none"
             d="m 0,0 c -0.041,-0.204 -0.073,-0.378 -0.08,-0.482 l -0.817,0 0.058,0.323 -0.013,0 c -0.229,-0.219 -0.547,-0.395 -0.901,-0.395 -0.63,0 -1.046,0.397 -1.046,1.065 0,0.249 0.057,0.509 0.103,0.72 l 0.337,1.623 0.832,0 L -1.838,1.28 C -1.887,1.047 -1.93,0.825 -1.93,0.586 c 0,-0.285 0.186,-0.472 0.449,-0.472 0.58,0 0.789,0.56 0.898,1.061 l 0.335,1.679 0.834,0" />
        </g>
        <g
           transform="translate(523.3957,442.0675)"
           id="g9400">
          <path
             id="path9402"
             style="fill:#0e357f;fill-opacity:1;fill-rule:nonzero;stroke:none"
             d="m 0,0 c 0.038,0.203 0.068,0.376 0.082,0.484 l 0.814,0 -0.054,-0.326 0.01,0 c 0.23,0.218 0.547,0.395 0.904,0.395 0.633,0 1.045,-0.401 1.045,-1.062 0,-0.252 -0.064,-0.514 -0.11,-0.721 l -0.331,-1.623 -0.837,0 0.313,1.575 c 0.044,0.224 0.096,0.452 0.096,0.696 0,0.281 -0.188,0.47 -0.455,0.47 -0.576,0 -0.788,-0.561 -0.891,-1.058 l -0.347,-1.683 -0.825,0" />
        </g>
        <g
           transform="translate(527.1229,442.5512)"
           id="g9404">
          <path
             id="path9406"
             style="fill:#0e357f;fill-opacity:1;fill-rule:nonzero;stroke:none"
             d="m 0,0 0.832,0 -0.679,-3.335 -0.834,0 L 0,0 Z m 0.304,1.431 0.831,0 -0.169,-0.827 -0.838,0" />
        </g>
        <g
           transform="translate(530.6814,441.7854)"
           id="g9408">
          <path
             id="path9410"
             style="fill:#0e357f;fill-opacity:1;fill-rule:nonzero;stroke:none"
             d="m 0,0 c -0.159,0.108 -0.374,0.168 -0.607,0.168 -0.667,0 -1.039,-0.647 -1.039,-1.273 0,-0.434 0.139,-0.869 0.712,-0.869 0.207,0 0.455,0.062 0.673,0.168 l -0.09,-0.684 c -0.256,-0.133 -0.533,-0.152 -0.802,-0.152 -0.828,0 -1.36,0.576 -1.36,1.439 0,1.159 0.743,2.039 1.889,2.039 0.308,0 0.606,-0.052 0.83,-0.124" />
        </g>
        <g
           transform="translate(532.8604,439.731)"
           id="g9412">
          <path
             id="path9414"
             style="fill:#0e357f;fill-opacity:1;fill-rule:nonzero;stroke:none"
             d="m 0,0 -0.015,0 c -0.28,-0.379 -0.571,-0.588 -1.026,-0.588 -0.578,0 -0.99,0.336 -0.99,0.95 0,1.093 1.178,1.183 1.963,1.183 l 0.292,0 0.023,0.28 c 0,0.338 -0.347,0.435 -0.636,0.435 -0.369,0 -0.722,-0.097 -1.05,-0.255 l 0.117,0.69 c 0.351,0.129 0.714,0.194 1.086,0.194 0.639,0 1.243,-0.239 1.243,-1.022 0,-0.448 -0.317,-1.752 -0.395,-2.382 l -0.698,0 L 0,0 Z m -0.813,0.045 c 0.62,0 0.813,0.443 0.943,0.982 l -0.292,0 c -0.401,0 -1.076,-0.067 -1.076,-0.634 0,-0.236 0.21,-0.348 0.425,-0.348" />
        </g>
        <g
           transform="translate(534.3631,442.5512)"
           id="g9416">
          <path
             id="path9418"
             style="fill:#0e357f;fill-opacity:1;fill-rule:nonzero;stroke:none"
             d="M 0,0 0.599,0 0.745,0.681 1.64,0.984 1.433,0 2.179,0 2.05,-0.639 l -0.746,0 -0.307,-1.455 C 0.983,-2.168 0.965,-2.287 0.965,-2.415 c 0,-0.199 0.127,-0.325 0.313,-0.325 0.149,0 0.299,0.035 0.403,0.077 L 1.535,-3.335 C 1.398,-3.366 1.234,-3.409 1.092,-3.409 c -0.563,0 -0.962,0.233 -0.962,0.872 0,0.255 0.045,0.508 0.106,0.775 l 0.234,1.123 -0.601,0" />
        </g>
        <g
           transform="translate(537.2086,442.5512)"
           id="g9420">
          <path
             id="path9422"
             style="fill:#0e357f;fill-opacity:1;fill-rule:nonzero;stroke:none"
             d="m 0,0 0.832,0 -0.676,-3.335 -0.834,0 L 0,0 Z m 0.307,1.431 0.833,0 -0.171,-0.827 -0.834,0" />
        </g>
        <g
           transform="translate(541.5532,441.1598)"
           id="g9424">
          <path
             id="path9426"
             style="fill:#0e357f;fill-opacity:1;fill-rule:nonzero;stroke:none"
             d="m 0,0 c 0,-1.167 -0.778,-2.016 -1.91,-2.016 -0.908,0 -1.458,0.577 -1.458,1.519 0,1.109 0.825,1.958 1.892,1.958 C -0.61,1.461 0,0.92 0,0 m -0.875,-0.002 c 0,0.433 -0.142,0.797 -0.633,0.797 -0.657,0 -0.986,-0.758 -0.986,-1.356 0,-0.443 0.177,-0.788 0.656,-0.788 0.642,0 0.963,0.778 0.963,1.347" />
        </g>
        <g
           transform="translate(542.2571,442.0675)"
           id="g9428">
          <path
             id="path9430"
             style="fill:#0e357f;fill-opacity:1;fill-rule:nonzero;stroke:none"
             d="m 0,0 c 0.038,0.203 0.072,0.376 0.082,0.484 l 0.811,0 -0.054,-0.326 0.013,0 c 0.227,0.218 0.547,0.395 0.909,0.395 0.625,0 1.038,-0.401 1.038,-1.062 0,-0.252 -0.06,-0.514 -0.108,-0.721 l -0.33,-1.623 -0.832,0 0.312,1.575 c 0.039,0.224 0.092,0.452 0.092,0.696 0,0.281 -0.189,0.47 -0.456,0.47 -0.577,0 -0.782,-0.561 -0.892,-1.058 l -0.343,-1.683 -0.831,0" />
        </g>
        <g
           transform="translate(547.6475,441.8391)"
           id="g9432">
          <path
             id="path9434"
             style="fill:#0e357f;fill-opacity:1;fill-rule:nonzero;stroke:none"
             d="m 0,0 c -0.216,0.083 -0.449,0.152 -0.686,0.152 -0.246,0 -0.555,-0.069 -0.555,-0.337 0,-0.423 1.082,-0.576 1.082,-1.39 0,-0.868 -0.732,-1.121 -1.445,-1.121 -0.334,0 -0.671,0.047 -0.973,0.197 l 0.175,0.697 c 0.24,-0.139 0.475,-0.26 0.798,-0.26 0.279,0 0.571,0.098 0.571,0.369 0,0.531 -1.081,0.581 -1.081,1.419 0,0.78 0.728,1.056 1.389,1.056 0.302,0 0.613,-0.054 0.902,-0.128" />
        </g>
        <g
           transform="translate(505.3032,442.8349)"
           id="g9436">
          <path
             id="path9438"
             style="fill:#0e357f;fill-opacity:1;fill-rule:nonzero;stroke:none"
             d="m 0,0 c -0.196,0.146 -0.522,0.258 -0.99,0.258 -0.42,0 -1.315,-0.267 -1.621,-1.343 -0.386,-1.371 0.39,-1.899 1.152,-1.899 0.364,0 0.667,0.121 0.922,0.282 l -0.158,-0.871 c -0.322,-0.086 -0.656,-0.119 -0.984,-0.119 -1.306,0 -2.223,1.003 -1.833,2.607 0.345,1.431 1.409,2.06 2.477,2.06 0.436,0 0.894,-0.06 1.27,-0.221" />
        </g>
      </g>
    </g>
  </g>
</svg>
